<?xml version="1.0" encoding="utf-8"?>
<!-- Generator: Adobe Illustrator 27.0.0, SVG Export Plug-In . SVG Version: 6.00 Build 0)  -->
<svg version="1.1" id="Layer_1" xmlns="http://www.w3.org/2000/svg" xmlns:xlink="http://www.w3.org/1999/xlink" x="0px" y="0px"
	 viewBox="0 0 1200 800" style="enable-background:new 0 0 1200 800;" xml:space="preserve">
<style type="text/css">
	.st0{fill:#81A8D9;}
</style>
<g>
	<path class="st0" d="M529.7,420.3c-13.6,0-15.3,0.1-20.6,0.3c-5.3,0.3-9,1.1-12.1,2.3c-3.3,1.3-6.1,3-8.9,5.8
		c-2.8,2.8-4.5,5.6-5.8,8.9c-1.2,3.2-2.1,6.8-2.3,12.1c-0.3,5.3-0.3,7-0.3,20.6c0,13.6,0.1,15.3,0.3,20.6c0.3,5.3,1.1,9,2.3,12.1
		c1.3,3.3,3,6.1,5.8,8.9c2.8,2.8,5.6,4.5,8.9,5.8c3.2,1.2,6.8,2.1,12.1,2.3c5.3,0.3,7,0.3,20.6,0.3s15.3-0.1,20.6-0.3
		s9-1.1,12.1-2.3c3.3-1.3,6.1-3,8.9-5.8c2.8-2.8,4.5-5.6,5.8-8.9c1.2-3.2,2.1-6.8,2.3-12.1c0.3-5.3,0.3-7,0.3-20.6
		c0-13.6-0.1-15.3-0.3-20.6s-1.1-9-2.3-12.1c-1.3-3.3-3-6.1-5.8-8.9s-5.6-4.5-8.9-5.8c-3.2-1.2-6.8-2.1-12.1-2.3
		C545,420.4,543.3,420.3,529.7,420.3z M529.7,429.3c13.3,0,14.9,0.1,20.2,0.3c4.9,0.2,7.5,1,9.3,1.7c2.3,0.9,4,2,5.8,3.7
		c1.8,1.8,2.8,3.4,3.7,5.8c0.7,1.8,1.5,4.4,1.7,9.3c0.2,5.3,0.3,6.9,0.3,20.2s-0.1,14.9-0.3,20.2c-0.2,4.9-1,7.5-1.7,9.3
		c-0.9,2.3-2,4-3.7,5.8s-3.4,2.8-5.8,3.7c-1.8,0.7-4.4,1.5-9.3,1.7c-5.3,0.2-6.9,0.3-20.2,0.3s-14.9-0.1-20.2-0.3
		c-4.9-0.2-7.5-1-9.3-1.7c-2.3-0.9-4-2-5.8-3.7c-1.8-1.8-2.8-3.4-3.7-5.8c-0.7-1.8-1.5-4.4-1.7-9.3c-0.2-5.3-0.3-6.9-0.3-20.2
		c0-13.3,0.1-14.9,0.3-20.2c0.2-4.9,1-7.5,1.7-9.3c0.9-2.3,2-4,3.7-5.8c1.8-1.8,3.4-2.8,5.8-3.7c1.8-0.7,4.4-1.5,9.3-1.7
		C514.7,429.4,516.3,429.3,529.7,429.3"/>
	<path class="st0" d="M529.7,487c-9.2,0-16.7-7.5-16.7-16.7c0-9.2,7.5-16.7,16.7-16.7c9.2,0,16.7,7.5,16.7,16.7
		C546.4,479.5,538.9,487,529.7,487z M529.7,444.6c-14.2,0-25.7,11.5-25.7,25.7s11.5,25.7,25.7,25.7c14.2,0,25.7-11.5,25.7-25.7
		C555.4,456.1,543.9,444.6,529.7,444.6 M562.4,443.6c0,3.3-2.7,6-6,6c-3.3,0-6-2.7-6-6c0-3.3,2.7-6,6-6
		C559.7,437.6,562.4,440.3,562.4,443.6"/>
</g>
</svg>
