<?xml version="1.0" encoding="UTF-8"?>
<svg id="Layer_2" data-name="Layer 2" xmlns="http://www.w3.org/2000/svg" viewBox="0 0 100 100">
  <defs>
    <style>
      .cls-1 {
        fill: #81a8d9;
      }
    </style>
  </defs>
  <g id="Layer_1-2" data-name="Layer 1">
    <g>
      <path class="cls-1" d="M50,0c-13.58,0-15.28,.05-20.61,.31s-8.97,1.1-12.15,2.32c-3.29,1.27-6.09,2.98-8.86,5.76S3.9,13.96,2.62,17.24c-1.25,3.18-2.09,6.83-2.32,12.15-.25,5.32-.31,7.03-.31,20.61s.05,15.28,.31,20.61c.25,5.32,1.1,8.97,2.32,12.15,1.27,3.29,2.98,6.09,5.76,8.86,2.78,2.78,5.58,4.48,8.86,5.76,3.18,1.25,6.83,2.09,12.15,2.32,5.32,.25,7.03,.31,20.61,.31s15.28-.05,20.61-.31,8.97-1.1,12.15-2.32c3.29-1.27,6.09-2.98,8.86-5.76s4.48-5.58,5.76-8.86c1.25-3.18,2.09-6.83,2.32-12.15,.25-5.32,.31-7.03,.31-20.61s-.05-15.28-.31-20.61-1.1-8.97-2.32-12.15c-1.27-3.29-2.98-6.09-5.76-8.86-2.78-2.78-5.58-4.48-8.86-5.76-3.18-1.25-6.83-2.09-12.15-2.32-5.32-.25-7.03-.31-20.61-.31Zm0,9.02c13.35,0,14.93,.05,20.2,.28,4.86,.23,7.51,1.04,9.3,1.73,2.34,.92,4,1.99,5.76,3.74,1.76,1.76,2.83,3.41,3.74,5.76,.69,1.76,1.5,4.41,1.73,9.3,.23,5.27,.28,6.85,.28,20.2s-.05,14.93-.28,20.2c-.23,4.86-1.04,7.51-1.73,9.3-.92,2.34-1.99,4-3.74,5.76-1.76,1.76-3.41,2.83-5.76,3.74-1.76,.69-4.41,1.5-9.3,1.73-5.27,.23-6.85,.28-20.2,.28s-14.93-.05-20.2-.28c-4.87-.23-7.51-1.04-9.3-1.73-2.34-.92-4-1.99-5.76-3.74s-2.83-3.41-3.74-5.76c-.69-1.76-1.5-4.41-1.73-9.3-.23-5.27-.28-6.85-.28-20.2s.05-14.93,.28-20.2c.23-4.87,1.04-7.51,1.73-9.3,.92-2.34,1.99-4,3.74-5.76,1.76-1.76,3.41-2.83,5.76-3.74,1.76-.69,4.41-1.5,9.3-1.73,5.25-.23,6.83-.28,20.2-.28"/>
      <path class="cls-1" d="M50,66.68c-9.2,0-16.66-7.46-16.66-16.66s7.46-16.66,16.66-16.66,16.66,7.46,16.66,16.66c0,9.2-7.46,16.66-16.66,16.66Zm0-42.36c-14.19,0-25.67,11.49-25.67,25.67s11.49,25.67,25.67,25.67,25.67-11.49,25.67-25.67-11.51-25.67-25.67-25.67m32.68-1.02c0,3.31-2.67,6.01-6.01,6.01s-6.01-2.67-6.01-6.01,2.67-6.01,6.01-6.01c3.34,.03,6.01,2.7,6.01,6.01"/>
    </g>
  </g>
</svg>