<?xml version="1.0" encoding="UTF-8"?>
<svg id="Layer_2" data-name="Layer 2" xmlns="http://www.w3.org/2000/svg" viewBox="0 0 357.98 462.72">
  <defs>
    <style>
      .cls-1 {
        stroke: #deb691;
        stroke-miterlimit: 10;
        stroke-width: 1.82px;
      }

      .cls-1, .cls-2 {
        fill: #deb691;
      }
    </style>
  </defs>
  <g id="cat">
    <path class="cls-2" d="M149.52,108.66C79.52,105.6,9.08,217.95,12.44,244.63c6.58,52.33,30.01,97.14,72.67,119.99,.54-.44,1.14-.79,1.79-1.02,2.18-.77,4.53-1.49,6.86-1.32,.93-.99,2.21-1.72,3.87-1.89,12.28-1.29,24.08-.35,32.04,6.97,.18-.02,.34-.07,.53-.08,8.68-.51,18.02,.54,24.57,6.37,3.91,.27,7.82,.66,11.72,1.25,2.69,.41,3.99,2.11,4.25,4.08,65.64-10.11,115.88-66.41,115.88-134.35,0-75.1-61.45-132.67-137.09-135.97Z"/>
    <path class="cls-2" d="M282.07,210.08c29.94,75.75,63.4,154.85,75.9,218.57-65.48,29.36-146.68,50.77-196.83,16.41,5.64-4.56-3.19-30.27-17.67-64.26-59.4,9.86-86.18,16.16-100.89-7.61-21.29-3.32-34.08-23.14-42.58-52.49,.84-4.65,4.56-6.77,9.94-7.53,18.96-2.65,15.05-16.32,23.75-41.86"/>
    <path class="cls-1" d="M94.36,129.24c9.04-23.65-9.33-71.3-27.77-106.09,5.76-2.5,10.29-.56,14.47,2.65l46.57,35.46-5.99,50.56c8-30.3,7.97-67.3,0-110.91,7.98,0,6.06,1.06,12.47,8.21,41.74,46.5,84.43,84.94,96.62,151.19"/>
  </g>
</svg>