<?xml version="1.0" encoding="UTF-8"?>
<svg id="Layer_2" data-name="Layer 2" xmlns="http://www.w3.org/2000/svg" viewBox="0 0 100 100">
  <defs>
    <style>
      .cls-1 {
        fill: #fff;
      }

      .cls-2 {
        fill: #81a8d9;
      }
    </style>
  </defs>
  <g id="Layer_1-2" data-name="Layer 1">
    <g>
      <path class="cls-2" d="M100,50.01c0-14.72,0-29.44,0-44.16,0-3.75-2.05-5.84-5.77-5.84C64.71,0,35.19,0,5.68,0,2.1,0,0,2.11,0,5.71c0,29.52,0,59.03,0,88.55,0,3.66,2.09,5.74,5.76,5.74,29.48,0,58.96,0,88.44,0,.63,0,1.28-.03,1.88-.18,2.51-.64,3.91-2.68,3.92-5.64,0-14.72,0-29.44,0-44.16Z"/>
      <path class="cls-2" d="M100,50.01c0,14.72,0,29.44,0,44.16,0,2.96-1.41,4.99-3.92,5.64-.6,.15-1.25,.18-1.88,.18-29.48,0-58.96,0-88.44,0-3.66,0-5.76-2.08-5.76-5.74C0,64.74,0,35.22,0,5.71,0,2.11,2.1,0,5.68,0c29.52,0,59.03,0,88.55,0,3.71,0,5.77,2.09,5.77,5.84,0,14.72,0,29.44,0,44.16Zm-43.27,23.29c0-6.1,.02-12.19-.02-18.29,0-.87,.25-1.16,1.14-1.15,3.6,.04,7.21,0,10.82,.03,.84,0,1.16-.27,1.27-1.12,.53-4.39,1.11-8.77,1.71-13.15,.12-.92-.15-1.27-1.11-1.26-4.24,.04-8.47,.01-12.71,.02-.58,0-1.11,.05-1.1-.82,.04-3.27-.07-6.55,.09-9.81,.1-2.05,.49-4.24,2.74-5.09,1.49-.56,3.15-.81,4.75-.92,2.29-.15,4.61-.05,6.91-.03,.7,0,1.12-.14,1.12-.97-.02-4.01-.02-8.03,0-12.04,0-.6-.24-.89-.85-.91-4.52-.14-9.06-.54-13.57-.37-4.62,.17-8.75,1.94-12,5.41-3.51,3.75-4.93,8.32-5.06,13.34-.1,3.68-.05,7.36-.01,11.04,.01,.91-.25,1.22-1.18,1.21-3.6-.05-7.21,0-10.82-.03-.86,0-1.18,.27-1.17,1.15,.03,4.39,.03,8.77,0,13.16,0,.92,.31,1.23,1.23,1.22,3.49-.04,6.99-.02,10.48-.02q1.44,0,1.44,1.47c0,12.01,.01,24.01-.02,36.02,0,1.14,.35,1.47,1.46,1.46,4.35-.05,8.7-.05,13.05,0,1.13,.01,1.46-.34,1.45-1.47-.05-6.02-.02-12.04-.02-18.06Z"/>
      <path class="cls-1" d="M56.73,73.3c0,6.02-.03,12.04,.02,18.06,0,1.13-.33,1.48-1.45,1.47-4.35-.05-8.7-.05-13.05,0-1.12,.01-1.46-.32-1.46-1.46,.04-12.01,.02-24.01,.02-36.02q0-1.47-1.44-1.47c-3.49,0-6.99-.03-10.48,.02-.92,.01-1.23-.3-1.23-1.22,.03-4.39,.03-8.77,0-13.16,0-.88,.31-1.16,1.17-1.15,3.61,.03,7.21-.02,10.82,.03,.94,.01,1.19-.29,1.18-1.21-.04-3.68-.09-7.36,.01-11.04,.13-5.01,1.55-9.59,5.06-13.34,3.25-3.47,7.37-5.24,12-5.41,4.51-.17,9.05,.23,13.57,.37,.61,.02,.85,.3,.85,.91-.01,4.01-.02,8.03,0,12.04,0,.83-.42,.98-1.12,.97-2.3-.02-4.62-.12-6.91,.03-1.6,.1-3.26,.35-4.75,.92-2.25,.85-2.64,3.04-2.74,5.09-.16,3.26-.05,6.54-.09,9.81-.01,.87,.52,.82,1.1,.82,4.24,0,8.47,.02,12.71-.02,.96,0,1.24,.34,1.11,1.26-.59,4.38-1.18,8.76-1.71,13.15-.1,.85-.42,1.13-1.27,1.12-3.61-.04-7.21,.01-10.82-.03-.89-.01-1.14,.27-1.14,1.15,.03,6.1,.02,12.19,.02,18.29Z"/>
    </g>
  </g>
</svg>