<?xml version="1.0" encoding="UTF-8"?>
<svg id="Layer_2" data-name="Layer 2" xmlns="http://www.w3.org/2000/svg" viewBox="0 0 100 100">
  <defs>
    <style>
      .cls-1 {
        fill: #fff;
      }

      .cls-2 {
        fill: #81a8d9;
      }
    </style>
  </defs>
  <g id="Layer_1-2" data-name="Layer 1">
    <g>
      <path class="cls-2" d="M99.94,50.04c0-13.38-.12-26.77,.05-40.15C100.07,4.26,95.47-.02,90.09,0,63.38,.08,36.66,.03,9.95,.04,4.01,.04,0,4.06,0,9.99c0,26.67,0,53.35,0,80.02,0,5.84,4,9.96,9.83,9.97,26.81,.03,53.61,.02,80.42,0,5.88,0,9.8-4.84,9.75-9.8-.16-13.38-.05-26.76-.05-40.15Z"/>
      <path class="cls-2" d="M99.94,50.04c0,13.38-.1,26.77,.05,40.15,.06,4.96-3.87,9.8-9.75,9.8-26.81,.01-53.61,.02-80.42,0C4,99.98,0,95.85,0,90.02,0,63.34,0,36.67,0,9.99,0,4.06,4.01,.04,9.95,.04,36.66,.03,63.38,.08,90.09,0c5.38-.02,9.98,4.26,9.91,9.89-.17,13.38-.05,26.77-.05,40.15ZM10.12,39.74c.02,4.08,1.32,7.7,3.83,10.92,2.51,3.22,5.85,5.21,9.77,6.33-.03,.14-.05,.27-.08,.41h-7.33c3.01,7.66,8.41,11.59,16.53,12.47-7.81,5.84-16.29,8.08-25.66,7.48,.46,.41,.94,.72,1.44,1.01,9.78,5.57,20.27,7.67,31.46,6.42,13.7-1.53,24.92-7.59,33.4-18.43,7.36-9.41,11.22-20.13,11.12-32.15-.01-1.33,.38-2.2,1.42-3.13,2.26-2.03,4.29-4.32,6.39-6.52,.32-.33,.52-.77,.82-1.22-3.15,.86-6.1,1.66-8.59,2.34,1.07-1.27,2.34-2.74,3.56-4.25,1.24-1.54,2.19-3.24,2.8-5.13-2.77,1.08-5.4,2.08-8.01,3.15-1.99,.81-3.77,.87-5.17-1.06-.1-.14-.28-.22-.44-.33-5.97-4.11-12.34-4.74-18.75-1.43-6.57,3.39-9.73,9.08-9.66,16.5,0,1.05-.03,2.1-.04,3.16-1.13-.05-2.27-.02-3.39-.18-12.36-1.69-22.77-7.11-31.18-16.33-.51-.56-.97-1.17-1.58-1.9-1.93,2.91-2.58,5.86-2.55,8.86,.05,5.98,2.54,10.88,7.38,14.57-.09,.16-.18,.32-.27,.47-2.35-.66-4.71-1.32-7.22-2.02Z"/>
      <path class="cls-1" d="M10.12,39.74c2.51,.7,4.87,1.36,7.22,2.02,.09-.16,.18-.32,.27-.47-4.84-3.69-7.33-8.59-7.38-14.57-.02-3,.62-5.94,2.55-8.86,.6,.73,1.06,1.34,1.58,1.9,8.41,9.22,18.81,14.64,31.18,16.33,1.12,.15,2.26,.12,3.39,.18,.01-1.05,.05-2.1,.04-3.16-.07-7.42,3.09-13.1,9.66-16.5,6.41-3.31,12.78-2.67,18.75,1.43,.15,.1,.33,.19,.44,.33,1.41,1.93,3.18,1.87,5.17,1.06,2.61-1.07,5.24-2.06,8.01-3.15-.6,1.89-1.55,3.59-2.8,5.13-1.22,1.51-2.49,2.98-3.56,4.25,2.49-.68,5.45-1.48,8.59-2.34-.3,.46-.5,.89-.82,1.22-2.1,2.2-4.13,4.49-6.39,6.52-1.04,.93-1.43,1.8-1.42,3.13,.1,12.02-3.76,22.74-11.12,32.15-8.48,10.84-19.7,16.9-33.4,18.43-11.19,1.25-21.68-.85-31.46-6.42-.5-.28-.98-.6-1.44-1.01,9.37,.6,17.85-1.64,25.66-7.48-8.12-.88-13.52-4.81-16.53-12.47h7.33c.03-.14,.05-.27,.08-.41-3.92-1.12-7.26-3.11-9.77-6.33-2.51-3.22-3.81-6.84-3.83-10.92Z"/>
    </g>
  </g>
</svg>